<?xml version="1.0" standalone="no"?>
<!DOCTYPE svg PUBLIC "-//W3C//DTD SVG 20010904//EN"
 "http://www.w3.org/TR/2001/REC-SVG-20010904/DTD/svg10.dtd">
<svg version="1.0" xmlns="http://www.w3.org/2000/svg"
 width="608.000000pt" height="173.000000pt" viewBox="0 0 608.000000 173.000000"
 preserveAspectRatio="xMidYMid meet">

<g transform="translate(0.000000,173.000000) scale(0.100000,-0.100000)"
fill="#000000" stroke="none">
<path d="M398 1693 c96 -121 241 -208 402 -242 87 -19 246 -22 340 -6 170 29
199 35 312 70 243 73 360 93 458 75 101 -18 154 -51 275 -170 130 -128 195
-179 290 -224 158 -77 290 -108 455 -108 186 0 311 33 630 165 350 144 477
177 678 177 147 0 259 -19 388 -65 242 -88 299 -106 380 -120 275 -48 500 10
743 192 79 59 315 283 307 291 -3 2 -58 -46 -123 -108 -255 -242 -432 -342
-656 -370 -163 -20 -308 6 -563 101 -185 68 -277 89 -420 96 -213 10 -379 -30
-728 -174 -391 -162 -568 -198 -788 -159 -229 41 -402 141 -603 346 -44 45
-98 93 -120 106 -54 31 -146 54 -218 54 -72 0 -229 -31 -351 -70 -245 -78
-419 -104 -594 -88 -177 16 -335 89 -441 204 -63 69 -102 88 -53 27z"/>
<path d="M935 916 c-77 -17 -89 -22 -157 -68 -123 -82 -188 -205 -188 -357 0
-88 13 -137 56 -211 103 -176 310 -260 502 -201 135 41 250 156 288 289 25 84
16 220 -19 296 -88 191 -287 295 -482 252z m273 -57 c119 -58 198 -165 223
-303 41 -218 -126 -445 -349 -476 -264 -36 -484 167 -470 434 7 139 80 261
196 329 128 74 270 80 400 16z"/>
</g>
</svg>
